<mxfile host="app.diagrams.net" agent="Mozilla/5.0 (X11; Ubuntu; Linux x86_64; rv:133.0) Gecko/20100101 Firefox/133.0" version="25.0.3">
  <diagram name="Page-1" id="hjzciBh58OcqA2KjW0JY">
    <mxGraphModel dx="1434" dy="761" grid="1" gridSize="10" guides="1" tooltips="1" connect="1" arrows="1" fold="1" page="1" pageScale="1" pageWidth="1100" pageHeight="850" math="0" shadow="0">
      <root>
        <mxCell id="0" />
        <mxCell id="1" parent="0" />
        <mxCell id="44AgPeS3Uq_hd9BAoIyW-2" value="Container runtime" style="rounded=0;whiteSpace=wrap;html=1;shadow=0;glass=1;labelPosition=center;verticalLabelPosition=bottom;align=center;verticalAlign=top;" vertex="1" parent="1">
          <mxGeometry x="225" y="200" width="600" height="490" as="geometry" />
        </mxCell>
        <mxCell id="44AgPeS3Uq_hd9BAoIyW-15" value="&lt;div&gt;Host&lt;/div&gt;&lt;div&gt;&lt;br&gt;&lt;/div&gt;" style="rounded=0;whiteSpace=wrap;html=1;labelPosition=right;verticalLabelPosition=top;align=left;verticalAlign=bottom;spacingLeft=-38;spacingTop=0;spacingBottom=-15;" vertex="1" parent="1">
          <mxGeometry x="270" y="340" width="510" height="320" as="geometry" />
        </mxCell>
        <mxCell id="44AgPeS3Uq_hd9BAoIyW-3" value="&lt;div&gt;Images Available&amp;nbsp;&lt;/div&gt;&lt;div&gt;locally&lt;/div&gt;" style="whiteSpace=wrap;html=1;aspect=fixed;" vertex="1" parent="1">
          <mxGeometry x="610" y="490" width="140" height="140" as="geometry" />
        </mxCell>
        <mxCell id="44AgPeS3Uq_hd9BAoIyW-4" value="&lt;div&gt;Images in remote&amp;nbsp;&lt;/div&gt;&lt;div&gt;docker repository&lt;/div&gt;" style="whiteSpace=wrap;html=1;aspect=fixed;" vertex="1" parent="1">
          <mxGeometry x="920" y="191" width="160" height="160" as="geometry" />
        </mxCell>
        <mxCell id="44AgPeS3Uq_hd9BAoIyW-5" value="Containers" style="rounded=1;whiteSpace=wrap;html=1;labelPosition=center;verticalLabelPosition=bottom;align=center;verticalAlign=top;" vertex="1" parent="1">
          <mxGeometry x="300" y="360" width="260" height="270" as="geometry" />
        </mxCell>
        <mxCell id="44AgPeS3Uq_hd9BAoIyW-6" value="container 1" style="shape=process;whiteSpace=wrap;html=1;backgroundOutline=1;" vertex="1" parent="1">
          <mxGeometry x="380" y="410" width="90" height="30" as="geometry" />
        </mxCell>
        <mxCell id="44AgPeS3Uq_hd9BAoIyW-7" value="&lt;div&gt;container 2&lt;/div&gt;" style="shape=process;whiteSpace=wrap;html=1;backgroundOutline=1;" vertex="1" parent="1">
          <mxGeometry x="380" y="460" width="90" height="30" as="geometry" />
        </mxCell>
        <mxCell id="44AgPeS3Uq_hd9BAoIyW-8" value="container 3" style="shape=process;whiteSpace=wrap;html=1;backgroundOutline=1;" vertex="1" parent="1">
          <mxGeometry x="380" y="510" width="90" height="30" as="geometry" />
        </mxCell>
        <mxCell id="44AgPeS3Uq_hd9BAoIyW-9" value="container n" style="shape=process;whiteSpace=wrap;html=1;backgroundOutline=1;" vertex="1" parent="1">
          <mxGeometry x="380" y="590" width="90" height="30" as="geometry" />
        </mxCell>
        <mxCell id="44AgPeS3Uq_hd9BAoIyW-35" style="edgeStyle=orthogonalEdgeStyle;rounded=0;orthogonalLoop=1;jettySize=auto;html=1;entryX=0.5;entryY=0;entryDx=0;entryDy=0;" edge="1" parent="1" source="44AgPeS3Uq_hd9BAoIyW-10" target="44AgPeS3Uq_hd9BAoIyW-5">
          <mxGeometry relative="1" as="geometry" />
        </mxCell>
        <mxCell id="44AgPeS3Uq_hd9BAoIyW-36" style="edgeStyle=orthogonalEdgeStyle;rounded=0;orthogonalLoop=1;jettySize=auto;html=1;" edge="1" parent="1" target="44AgPeS3Uq_hd9BAoIyW-3">
          <mxGeometry relative="1" as="geometry">
            <mxPoint x="520" y="310" as="sourcePoint" />
            <Array as="points">
              <mxPoint x="680" y="310" />
            </Array>
          </mxGeometry>
        </mxCell>
        <mxCell id="44AgPeS3Uq_hd9BAoIyW-10" value="Docker Daemon" style="ellipse;whiteSpace=wrap;html=1;" vertex="1" parent="1">
          <mxGeometry x="400" y="230" width="240" height="80" as="geometry" />
        </mxCell>
        <mxCell id="44AgPeS3Uq_hd9BAoIyW-34" style="edgeStyle=orthogonalEdgeStyle;rounded=0;orthogonalLoop=1;jettySize=auto;html=1;" edge="1" parent="1" source="44AgPeS3Uq_hd9BAoIyW-16" target="44AgPeS3Uq_hd9BAoIyW-10">
          <mxGeometry relative="1" as="geometry" />
        </mxCell>
        <mxCell id="44AgPeS3Uq_hd9BAoIyW-16" value="&lt;div&gt;docker build&lt;/div&gt;&lt;div&gt;&lt;br&gt;&lt;/div&gt;&lt;div&gt;&lt;br&gt;&lt;/div&gt;&lt;div&gt;docker push &lt;br&gt;&lt;/div&gt;&lt;div&gt;&lt;br&gt;&lt;/div&gt;&lt;div&gt;&lt;br&gt;&lt;/div&gt;&lt;div&gt;docker pull&lt;/div&gt;&lt;div&gt;&lt;br&gt;&lt;/div&gt;&lt;div&gt;&lt;br&gt;&lt;/div&gt;&lt;div&gt;docker run&lt;br&gt;&lt;/div&gt;" style="text;strokeColor=none;fillColor=none;align=left;verticalAlign=middle;spacingLeft=4;spacingRight=4;overflow=hidden;points=[[0,0.5],[1,0.5]];portConstraint=eastwest;rotatable=0;whiteSpace=wrap;html=1;rounded=1;glass=1;shadow=1;sketch=1;curveFitting=1;jiggle=2;" vertex="1" parent="1">
          <mxGeometry x="10" y="140" width="80" height="170" as="geometry" />
        </mxCell>
        <mxCell id="44AgPeS3Uq_hd9BAoIyW-30" style="edgeStyle=orthogonalEdgeStyle;rounded=0;orthogonalLoop=1;jettySize=auto;html=1;entryX=1;entryY=0.5;entryDx=0;entryDy=0;" edge="1" parent="1" source="44AgPeS3Uq_hd9BAoIyW-17" target="44AgPeS3Uq_hd9BAoIyW-16">
          <mxGeometry relative="1" as="geometry" />
        </mxCell>
        <mxCell id="44AgPeS3Uq_hd9BAoIyW-17" value="Actor" style="shape=umlActor;verticalLabelPosition=bottom;verticalAlign=top;html=1;outlineConnect=0;" vertex="1" parent="1">
          <mxGeometry x="130" y="40" width="30" height="60" as="geometry" />
        </mxCell>
        <mxCell id="44AgPeS3Uq_hd9BAoIyW-18" value="" style="dashed=0;outlineConnect=0;html=1;align=center;labelPosition=center;verticalLabelPosition=bottom;verticalAlign=top;shape=mxgraph.webicons.github;gradientColor=#DFDEDE" vertex="1" parent="1">
          <mxGeometry x="410" y="10" width="102.4" height="102.4" as="geometry" />
        </mxCell>
        <mxCell id="44AgPeS3Uq_hd9BAoIyW-19" value="Dockerfile" style="swimlane;fontStyle=0;childLayout=stackLayout;horizontal=1;startSize=30;horizontalStack=0;resizeParent=1;resizeParentMax=0;resizeLast=0;collapsible=1;marginBottom=0;whiteSpace=wrap;html=1;" vertex="1" parent="1">
          <mxGeometry x="690" y="10" width="140" height="120" as="geometry" />
        </mxCell>
        <mxCell id="44AgPeS3Uq_hd9BAoIyW-20" value="FROM &amp;lt;image&amp;gt;" style="text;strokeColor=none;fillColor=none;align=left;verticalAlign=middle;spacingLeft=4;spacingRight=4;overflow=hidden;points=[[0,0.5],[1,0.5]];portConstraint=eastwest;rotatable=0;whiteSpace=wrap;html=1;" vertex="1" parent="44AgPeS3Uq_hd9BAoIyW-19">
          <mxGeometry y="30" width="140" height="30" as="geometry" />
        </mxCell>
        <mxCell id="44AgPeS3Uq_hd9BAoIyW-21" value="WORKDIR /" style="text;strokeColor=none;fillColor=none;align=left;verticalAlign=middle;spacingLeft=4;spacingRight=4;overflow=hidden;points=[[0,0.5],[1,0.5]];portConstraint=eastwest;rotatable=0;whiteSpace=wrap;html=1;" vertex="1" parent="44AgPeS3Uq_hd9BAoIyW-19">
          <mxGeometry y="60" width="140" height="30" as="geometry" />
        </mxCell>
        <mxCell id="44AgPeS3Uq_hd9BAoIyW-22" value="CMD []" style="text;strokeColor=none;fillColor=none;align=left;verticalAlign=middle;spacingLeft=4;spacingRight=4;overflow=hidden;points=[[0,0.5],[1,0.5]];portConstraint=eastwest;rotatable=0;whiteSpace=wrap;html=1;" vertex="1" parent="44AgPeS3Uq_hd9BAoIyW-19">
          <mxGeometry y="90" width="140" height="30" as="geometry" />
        </mxCell>
        <mxCell id="44AgPeS3Uq_hd9BAoIyW-24" style="edgeStyle=orthogonalEdgeStyle;rounded=0;orthogonalLoop=1;jettySize=auto;html=1;entryX=-0.014;entryY=0.733;entryDx=0;entryDy=0;entryPerimeter=0;" edge="1" parent="1" source="44AgPeS3Uq_hd9BAoIyW-18" target="44AgPeS3Uq_hd9BAoIyW-20">
          <mxGeometry relative="1" as="geometry" />
        </mxCell>
        <mxCell id="44AgPeS3Uq_hd9BAoIyW-28" style="edgeStyle=orthogonalEdgeStyle;rounded=0;orthogonalLoop=1;jettySize=auto;html=1;exitX=1;exitY=0.3333333333333333;exitDx=0;exitDy=0;exitPerimeter=0;entryX=-0.01;entryY=0.488;entryDx=0;entryDy=0;entryPerimeter=0;" edge="1" parent="1" source="44AgPeS3Uq_hd9BAoIyW-17" target="44AgPeS3Uq_hd9BAoIyW-18">
          <mxGeometry relative="1" as="geometry" />
        </mxCell>
        <mxCell id="44AgPeS3Uq_hd9BAoIyW-39" value="" style="endArrow=classic;startArrow=classic;html=1;rounded=0;entryX=0;entryY=0.5;entryDx=0;entryDy=0;exitX=1;exitY=0.75;exitDx=0;exitDy=0;" edge="1" parent="1" source="44AgPeS3Uq_hd9BAoIyW-5" target="44AgPeS3Uq_hd9BAoIyW-3">
          <mxGeometry width="50" height="50" relative="1" as="geometry">
            <mxPoint x="400" y="390" as="sourcePoint" />
            <mxPoint x="450" y="340" as="targetPoint" />
          </mxGeometry>
        </mxCell>
        <mxCell id="44AgPeS3Uq_hd9BAoIyW-40" value="" style="endArrow=classic;startArrow=classic;html=1;rounded=0;entryX=0;entryY=0.5;entryDx=0;entryDy=0;exitX=1;exitY=0.5;exitDx=0;exitDy=0;" edge="1" parent="1" source="44AgPeS3Uq_hd9BAoIyW-10" target="44AgPeS3Uq_hd9BAoIyW-4">
          <mxGeometry width="50" height="50" relative="1" as="geometry">
            <mxPoint x="400" y="390" as="sourcePoint" />
            <mxPoint x="450" y="340" as="targetPoint" />
          </mxGeometry>
        </mxCell>
      </root>
    </mxGraphModel>
  </diagram>
</mxfile>
